Coordinates
version=1
nRows=9
nColumns=40
inDegrees=yes

Units are S.I. units (second, meters, Newtons, ...)
If the header above contains a line with 'inDegrees', this indicates whether rotational values are in degrees (yes) or radians (no).

endheader
time	pelvis_tilt	pelvis_list	pelvis_rotation	pelvis_tx	pelvis_ty	pelvis_tz	hip_flexion_r	hip_adduction_r	hip_rotation_r	knee_angle_r	knee_angle_r_beta	ankle_angle_r	subtalar_angle_r	mtp_angle_r	hip_flexion_l	hip_adduction_l	hip_rotation_l	knee_angle_l	knee_angle_l_beta	ankle_angle_l	subtalar_angle_l	mtp_angle_l	lumbar_extension	lumbar_bending	lumbar_rotation	arm_flex_r	arm_add_r	arm_rot_r	elbow_flex_r	pro_sup_r	wrist_flex_r	wrist_dev_r	arm_flex_l	arm_add_l	arm_rot_l	elbow_flex_l	pro_sup_l	wrist_flex_l	wrist_dev_l
      5.00999999999999978684	     12.41553935956381593542	     -5.47724868492547312115	   -179.41533763293412562234	      0.39386172698517291080	      0.58393445757123740858	     -0.96559316400558148352	     85.11985352151552319810	    -49.82492280237945436738	     11.02639164468490662330	     68.36913097987903142894	      1.19326644232614609287	     -3.07743506419446033462	      0.00000000000000000000	      0.00000000000000000000	     70.42272322989558119843	    -49.72849577097292694816	    -13.38143003660033514279	     68.57859738007361727341	      1.19692232068184178928	     -1.25378173386620783702	      0.00000000000000000000	      0.00000000000000000000	    -50.23422282586417253469	     -1.57486036412274743590	      3.18143224887241160559	     55.94232233263203823981	    -10.43881471172670671876	     17.74952700157443530316	      1.93263443780135069083	     80.61707628043906481707	      0.00000000000000000000	      0.00000000000000000000	     48.17809486332532031838	      2.06158269180676612109	     41.97203961883906231378	      1.68964543837561476103	      7.35873842506154929310	      0.00000000000000000000	      0.00000000000000000000
      5.01499999999999968026	     12.61410596471834466570	     -5.31786816583823629401	   -179.33713114627610707430	      0.39391287498655169763	      0.58365965378834172572	     -0.96587058225376343223	     85.16392882689419252529	    -49.81787506036488366590	     10.81769717947273079517	     68.46038216899459882825	      1.19485907602257279692	     -3.09218457712765504297	      0.00000000000000000000	      0.00000000000000000000	     70.93820644351745841050	    -49.72216405316813592208	    -12.97815408692427219250	     68.56966706410895540103	      1.19676645726501496014	     -1.43994866571320301318	      0.00000000000000000000	      0.00000000000000000000	    -49.97442324874423746905	     -1.40971068599026816415	      3.28663269778308197999	     55.84588648989277714918	    -10.43901395419695177225	     17.78713446490429106461	      1.95034786605707877172	     80.45232205234340483457	      0.00000000000000000000	      0.00000000000000000000	     48.12203640558708883646	      2.09480530039060841574	     41.94202267139755946346	      1.66808164252860380294	      7.53767251951554495548	      0.00000000000000000000	      0.00000000000000000000
      5.01999999999999957367	     12.54216069237459940666	     -5.24356396736421892513	   -179.32179398730386310490	      0.39379232432900240779	      0.58401193865543932215	     -0.96627658605050059659	     84.94404504524753463102	    -49.81724390524977508221	     10.62561673649953419840	     68.46928567213994654139	      1.19501447146742090233	     -3.07615243899810941741	      0.00000000000000000000	      0.00000000000000000000	     70.89994469446212121966	    -49.71751646493806475746	    -12.83967745323709408467	     68.47044644338753016655	      1.19503473074755373062	     -1.56221112741755363551	      0.00000000000000000000	      0.00000000000000000000	    -50.03298795652455766003	     -1.32439229351448961580	      3.35168760460156134329	     55.89448834250935504997	    -10.37155833389332570960	     17.84165066357634543692	      1.87612584346016020298	     80.41998493625742128188	      0.00000000000000000000	      0.00000000000000000000	     48.16804387969434486649	      2.12531956830909241063	     41.97408698748655808686	      1.60829433243494079875	      7.56222143935541524229	      0.00000000000000000000	      0.00000000000000000000
      5.02500000000000035527	     12.42695943246903311774	     -5.18220217747091815852	   -179.31863902557728351894	      0.39361600154871967394	      0.58447014496917859550	     -0.96670598060805290608	     84.64253588215960633079	    -49.81776231595318904510	     10.43120614351560959676	     68.46552692247895777200	      1.19494886891007823237	     -2.94960796434730099236	      0.00000000000000000000	      0.00000000000000000000	     70.77234816557789542912	    -49.71560390869318268869	    -12.74652184442356706029	     68.35775451914302891510	      1.19306788562907906126	     -1.61888092849879638990	      0.00000000000000000000	      0.00000000000000000000	    -50.15008506401529331242	     -1.26157633369369404086	      3.41808759905651093902	     55.90851291284596413789	    -10.35140840992615629546	     17.89720527932667337723	      1.84895885929418124505	     80.39131936927101662604	      0.00000000000000000000	      0.00000000000000000000	     48.21127351756049961296	      2.12396838100136609029	     42.03780827505362793772	      1.59099788008028886210	      7.57351532794936499471	      0.00000000000000000000	      0.00000000000000000000
      5.03000000000000024869	     12.05108369105018795153	     -5.20416594862007375610	   -179.38387183137129454735	      0.39322982022635594168	      0.58567291042512448218	     -0.96727535677391507374	     84.06694380327154192400	    -49.82386317135801334643	     10.25357246305435232614	     68.40503347334252737255	      1.19389305904676001902	     -2.73777701207033441477	      0.00000000000000000000	      0.00000000000000000000	     70.07053722756236879832	    -49.72634705292237811136	    -12.97483647322788158363	     68.13128863151321468195	      1.18911531024648731147	     -1.53724776449628142139	      0.00000000000000000000	      0.00000000000000000000	    -50.60567636027565185941	     -1.30439560935511966733	      3.46383764786922032641	     55.98588212313483580829	    -10.36156164010215441351	     17.96223043310684275298	      1.88187223868175568242	     80.53453916493644726415	      0.00000000000000000000	      0.00000000000000000000	     48.30822539028667961247	      2.07830040587537689944	     42.32132626708733624810	      1.62991337505881639380	      7.40968779732172500019	      0.00000000000000000000	      0.00000000000000000000
      5.03500000000000014211	     12.25015359605759712736	     -5.12383605588384671847	   -179.34656426151849473172	      0.39324834591575519305	      0.58533249196741277132	     -0.96765304228478199455	     84.25520065494004029460	    -49.81770069122639910120	     10.13458327108896739333	     68.51003305353879113682	      1.19572564743439646584	     -2.78177150227993541520	      0.00000000000000000000	      0.00000000000000000000	     70.48169418487226778325	    -49.71612347110467311495	    -12.67408475159429315227	     68.13843203371811796387	      1.18923998613475712105	     -1.69929519430458975116	      0.00000000000000000000	      0.00000000000000000000	    -50.34212211520151214472	     -1.22557042896559198475	      3.55006631187702881292	     55.90532560577276655067	    -10.32969867838774113977	     17.96307121751509328078	      1.91268013733320318970	     80.42373584209745729368	      0.00000000000000000000	      0.00000000000000000000	     48.24133782868115360998	      2.11799611871859694290	     42.33087310980132400573	      1.62017717987202813923	      7.50801196906224532768	      0.00000000000000000000	      0.00000000000000000000
      5.04000000000000003553	     12.02879545806942829245	     -5.09994546000870130342	   -179.37245960743177874974	      0.39297278264780977075	      0.58625578928953836488	     -0.96807687068132242114	     83.83863136860637155223	    -49.81937432909606400244	      9.95181572840800932056	     68.44489726703400833685	      1.19458881349901191449	     -2.77212408212163907706	      0.00000000000000000000	      0.00000000000000000000	     70.06423068487237060253	    -49.71394152811689082228	    -12.76945142833170976360	     67.93668825163737778894	      1.18571889289202214712	     -1.74095813251596132076	      0.00000000000000000000	      0.00000000000000000000	    -50.61194121507250542891	     -1.18491266224586300204	      3.61250271393765354233	     55.99576713238009517681	    -10.31246093130696195317	     17.95784613345616875790	      1.80440648745510556772	     80.49807065364610991764	      0.00000000000000000000	      0.00000000000000000000	     48.35503073198606216465	      2.10422767209459893323	     42.50718241426655907844	      1.56046580378523702670	      7.38542454716251839386	      0.00000000000000000000	      0.00000000000000000000
      5.04499999999999992895	     11.84221776669785342051	     -5.10092213354976919959	   -179.42105354527103600049	      0.39264455544794690800	      0.58703333962388559719	     -0.96854585170051366028	     83.52174022719748336385	    -49.82187083658449466839	      9.79192855485530522230	     68.43306216902432481675	      1.19438225207144688156	     -2.61737189613929288612	      0.00000000000000000000	      0.00000000000000000000	     69.68169813239389043247	    -49.71537678861110975959	    -12.85014254829451729734	     67.78967917861407954661	      1.18315310053746092223	     -1.71855535961555228042	      0.00000000000000000000	      0.00000000000000000000	    -50.83941410524491288925	     -1.20168686844113370427	      3.67537690521358095808	     56.00434202919313264601	    -10.33682980524248407050	     17.89284956659525249734	      1.86140083767310060558	     80.61153272817260528882	      0.00000000000000000000	      0.00000000000000000000	     48.35124219587731175807	      2.11799195231941572715	     42.76594960862245642375	      1.60128859473369300481	      7.27109326901407726496	      0.00000000000000000000	      0.00000000000000000000
      5.04999999999999982236	     11.77557478097229903824	     -5.07848262847956188892	   -179.44649100601552049739	      0.39245796401883908944	      0.58750173120775228686	     -0.96898079792541025324	     83.35165353785360764505	    -49.82220715960285417623	      9.64094391587625665352	     68.43370195070274064619	      1.19439341836822898735	     -2.57515089313305711727	      0.00000000000000000000	      0.00000000000000000000	     69.53146526690578355101	    -49.71100532098449065188	    -12.82451461099025102897	     67.67228421834407470215	      1.18110417195550132519	     -1.75223543082729227294	      0.00000000000000000000	      0.00000000000000000000	    -50.91488608934034942877	     -1.18558829378820917988	      3.75717563822051614508	     56.01002665543111191937	    -10.36056683254132515515	     17.81777689630751382310	      1.86687440035240226344	     80.81000421187663107503	      0.00000000000000000000	      0.00000000000000000000	     48.35022760493848892338	      2.13296736860129820812	     43.03246635128676444992	      1.60414790479931901324	      7.07020226267096685291	      0.00000000000000000000	      0.00000000000000000000
